<?xml version="1.0" encoding="UTF-8"?>
<svg version="1.1" xmlns="http://www.w3.org/2000/svg" width="500" height="500">
<path d="M0 0 C165 0 330 0 500 0 C500 165 500 330 500 500 C335 500 170 500 0 500 C0 335 0 170 0 0 Z " fill="#171C30" transform="translate(0,0)"/>
<path d="M0 0 C99 0 198 0 300 0 C300 16.5 300 33 300 50 C201 50 102 50 0 50 C0 33.5 0 17 0 0 Z " fill="#FA6F53" transform="translate(100,226)"/>
<path d="M0 0 C30.69 0 61.38 0 93 0 C93 6.6 93 13.2 93 20 C62.31 20 31.62 20 0 20 C0 13.4 0 6.8 0 0 Z " fill="#FF6F52" transform="translate(307,285)"/>
<path d="M0 0 C28.38 0 56.76 0 86 0 C85 5 85 5 78 19 C49.29 19 20.58 19 -9 19 C-7 13 -7 13 0 0 Z " fill="#F86C51" transform="translate(194,195)"/>
<path d="M0 0 C4.75 0.75 4.75 0.75 7 3 C7.68132451 4.66072849 8.34742127 6.327767 9 8 C9.99 9.485 9.99 9.485 11 11 C11.25136719 10.41863281 11.50273437 9.83726562 11.76171875 9.23828125 C13.15780723 6.71475223 14.68086218 5.12349993 16.8125 3.1875 C17.47894531 2.56230469 18.14539063 1.93710938 18.83203125 1.29296875 C21 0 21 0 23.63671875 0.23828125 C26 1 26 1 28 2 C29.7057327 7.61888419 30.48646184 13.16188195 31 19 C31.53109375 18.15695313 32.0621875 17.31390625 32.609375 16.4453125 C33.66898438 14.80175781 33.66898438 14.80175781 34.75 13.125 C35.44609375 12.03445312 36.1421875 10.94390625 36.859375 9.8203125 C38.86294246 7.18057581 39.94039117 6.08877972 43 5 C43.99 5.66 44.98 6.32 46 7 C44.633713 9.88080325 43.06888188 12.44663492 41.25 15.0625 C38.2503701 19.44882012 35.88413671 24.02441035 33.58984375 28.8125 C32 31 32 31 29.50390625 31.875 C27 32 27 32 24 31 C23.505 19.12 23.505 19.12 23 7 C14.91253931 12.7337213 14.91253931 12.7337213 14 18 C14.74251234 19.94812917 14.74251234 19.94812917 15.9375 21.8125 C18.12507592 25.81929712 18.37616808 28.485983 18 33 C16.02 33.495 16.02 33.495 14 34 C12.35 30.37 10.7 26.74 9 23 C5.78119883 26.7935871 3.3836813 30.65829477 1 35 C0.67 34.34 0.34 33.68 0 33 C-0.66 32.855625 -1.32 32.71125 -2 32.5625 C-2.99 32.2840625 -2.99 32.2840625 -4 32 C-4.33 31.01 -4.66 30.02 -5 29 C-3.39282788 26.24697368 -1.66530188 23.67403039 0.1953125 21.08984375 C2.31797594 17.92069238 3.01207098 16.23756725 2.81640625 12.38671875 C2.54699219 11.26910156 2.27757812 10.15148437 2 9 C1.82339844 8.12472656 1.64679688 7.24945313 1.46484375 6.34765625 C1.20380859 5.21650391 1.20380859 5.21650391 0.9375 4.0625 C0.76089844 3.29035156 0.58429688 2.51820313 0.40234375 1.72265625 C0.26957031 1.15417969 0.13679687 0.58570313 0 0 Z " fill="#FEF6F4" transform="translate(152,235)"/>
<path d="M0 0 C1.125 2.0625 1.125 2.0625 2 4 C2.66 4.33 3.32 4.66 4 5 C4.80228505 14.53827787 2.78335056 19.95553259 -2.875 27.5 C-5.94837387 29.66944038 -8.26052793 29.93552634 -12 30 C-15.375 29.3125 -15.375 29.3125 -18 27 C-20.42215145 18.79302941 -18.64749518 11.51409784 -15 4 C-12.82961828 0.74442742 -12.16470833 0.38112258 -8.625 -0.8125 C-7.85414063 -1.08707031 -7.08328125 -1.36164063 -6.2890625 -1.64453125 C-3.46887079 -2.08247911 -2.33815183 -1.57927799 0 0 Z " fill="#FDF0EE" transform="translate(327,237)"/>
<path d="M0 0 C1.43023178 4.67209049 2.40380045 9.13103697 3 14 C3.99 14.33 4.98 14.66 6 15 C6.66 15.66 7.32 16.32 8 17 C7.01 17.33 6.02 17.66 5 18 C5.01571045 18.56509277 5.0314209 19.13018555 5.04760742 19.71240234 C5.10987045 22.26650023 5.14896136 24.82043871 5.1875 27.375 C5.21263672 28.26445312 5.23777344 29.15390625 5.26367188 30.0703125 C5.27333984 30.92109375 5.28300781 31.771875 5.29296875 32.6484375 C5.3086792 33.43395996 5.32438965 34.21948242 5.34057617 35.02880859 C5.22818604 35.67930176 5.1157959 36.32979492 5 37 C4.01 37.66 3.02 38.32 2 39 C1.67 37.02 1.34 35.04 1 33 C0.34 33 -0.32 33 -1 33 C-1.495 26.565 -1.495 26.565 -2 20 C-2.66 20.66 -3.32 21.32 -4 22 C-5.99894124 23.06610199 -7.91146376 23.97048792 -10.0625 24.6875 C-13.12700319 26.76345377 -13.73120122 29.57424329 -15 33 C-18 32 -18 32 -20 29 C-19.61141289 25.38315074 -18.41067636 22.1753097 -17.0625 18.8125 C-16.72347656 17.95269531 -16.38445312 17.09289062 -16.03515625 16.20703125 C-15 14 -15 14 -13 12 C-12.62127066 10.34305915 -12.29749946 8.67343448 -12 7 C-11.34853151 4.66237777 -10.68473395 2.32809543 -10 0 C-6.42355152 -1.2380014 -3.66305234 -0.74926071 0 0 Z " fill="#FDF3F1" transform="translate(215,234)"/>
<path d="M0 0 C2.76276177 0.52268466 5.3260876 1.10869587 8 2 C9.19630944 4.35477941 10.21952671 6.61747116 11.1875 9.0625 C11.46013672 9.72572266 11.73277344 10.38894531 12.01367188 11.07226562 C12.6856086 12.71084817 13.34409628 14.35493403 14 16 C14.33 16 14.66 16 15 16 C15.20496094 15.08476562 15.40992188 14.16953125 15.62109375 13.2265625 C16.02521484 11.44378906 16.02521484 11.44378906 16.4375 9.625 C16.70433594 8.44164062 16.97117188 7.25828125 17.24609375 6.0390625 C18 3 18 3 19 1 C21.97 1.495 21.97 1.495 25 2 C24.28455176 8.14570035 23.36391633 14.22638459 22.25 20.3125 C22.105625 21.20517578 21.96125 22.09785156 21.8125 23.01757812 C20.61015929 29.46076687 20.61015929 29.46076687 17.546875 32.16796875 C15 33 15 33 12 32 C11.52722942 29.90630173 11.06599806 27.80913617 10.671875 25.69921875 C9.4673415 20.86007546 7.18566525 16.46309508 5 12 C3.56663769 17.35121931 2.59015185 22.49191603 2 28 C0.35 28.66 -1.3 29.32 -3 30 C-4.70828518 28.29171482 -4.212955 26.14942181 -4.25 23.8125 C-4.20116458 15.66675169 -2.57312746 7.71938238 0 0 Z " fill="#FEF4F2" transform="translate(227,235)"/>
<path d="M0 0 C3.75 1.3125 3.75 1.3125 5.2890625 3.9140625 C7.1137357 8.29968054 8.69487023 12.67666388 9.75 17.3125 C10.41 17.3125 11.07 17.3125 11.75 17.3125 C11.87375 16.1575 11.9975 15.0025 12.125 13.8125 C12.65278885 9.52899625 13.63398037 5.47897328 14.75 1.3125 C17.06 1.6425 19.37 1.9725 21.75 2.3125 C21.30266338 4.59654818 20.84820349 6.87891608 20.38671875 9.16015625 C19.92260279 11.45795735 19.46818878 13.75772436 19.01953125 16.05859375 C18.63861328 17.94771484 18.63861328 17.94771484 18.25 19.875 C18.0128125 21.07253906 17.775625 22.27007812 17.53125 23.50390625 C17.2734375 24.43074219 17.015625 25.35757812 16.75 26.3125 C16.09 26.6425 15.43 26.9725 14.75 27.3125 C14.440625 28.1375 14.13125 28.9625 13.8125 29.8125 C13.2865625 31.05 13.2865625 31.05 12.75 32.3125 C11.265 32.8075 11.265 32.8075 9.75 33.3125 C9.358125 32.24 8.96625 31.1675 8.5625 30.0625 C5.68064392 20.53700136 5.68064392 20.53700136 0.75 12.3125 C0.57984375 13.44429687 0.4096875 14.57609375 0.234375 15.7421875 C-0.00948596 17.22411179 -0.2543288 18.70587474 -0.5 20.1875 C-0.60957031 20.93386719 -0.71914063 21.68023437 -0.83203125 22.44921875 C-1.77073782 27.93324135 -1.77073782 27.93324135 -4.234375 29.8828125 C-6.25 30.3125 -6.25 30.3125 -8.25 29.3125 C-8.6921061 22.45985548 -7.8098602 16.40654238 -6.3125 9.75 C-6.13041992 8.93998535 -5.94833984 8.1299707 -5.76074219 7.29541016 C-4.14678112 0.39872895 -4.14678112 0.39872895 0 0 Z " fill="#FEF3F1" transform="translate(259.25,234.6875)"/>
<path d="M0 0 C2.76276177 0.52268466 5.3260876 1.10869587 8 2 C9.3515625 4.6171875 9.3515625 4.6171875 10.625 7.875 C11.05039062 8.94492188 11.47578125 10.01484375 11.9140625 11.1171875 C12.64748674 13.06419141 13.34206875 15.02620624 14 17 C15.32 12.05 16.64 7.1 18 2 C23 1 23 1 25 2 C23.37772519 11.00839659 21.69296954 20.00468854 20 29 C19.34 28.67 18.68 28.34 18 28 C17.01 29.65 16.02 31.3 15 33 C13.515 32.505 13.515 32.505 12 32 C11.52188015 30.18997487 11.058894 28.37463626 10.671875 26.54296875 C9.34007395 21.50225665 7.08241588 16.76889132 5 12 C3.53572847 16.0118659 2.68645812 19.61840563 2.375 23.875 C2.30023438 24.84179688 2.22546875 25.80859375 2.1484375 26.8046875 C2.09945313 27.52914063 2.05046875 28.25359375 2 29 C0.35 29.33 -1.3 29.66 -3 30 C-5.52562528 20.5289052 -4.37969883 8.75939766 0 0 Z " fill="#FEF4F2" transform="translate(284,235)"/>
<path d="M0 0 C0.77915771 0.00410889 1.55831543 0.00821777 2.36108398 0.01245117 C3.20735352 0.01438477 4.05362305 0.01631836 4.92553711 0.01831055 C5.81047852 0.03055664 6.69541992 0.04280273 7.60717773 0.05541992 C8.49598633 0.05606445 9.38479492 0.05670898 10.30053711 0.05737305 C16.90446676 0.10270895 16.90446676 0.10270895 18.04467773 1.24291992 C18.46339088 5.36617993 17.60361107 7.50701396 15.35717773 10.93041992 C12.22356476 15.88018864 9.58172001 20.96677006 7.04467773 26.24291992 C6.38467773 26.24291992 5.72467773 26.24291992 5.04467773 26.24291992 C3.06467773 30.69791992 3.06467773 30.69791992 1.04467773 35.24291992 C0.05467773 34.91291992 -0.93532227 34.58291992 -1.95532227 34.24291992 C-1.50085672 28.10763509 0.54688318 23.8109889 3.54467773 18.49291992 C4.36944409 16.99914804 5.19243705 15.50439527 6.01342773 14.00854492 C6.37887695 13.35660156 6.74432617 12.7046582 7.12084961 12.03295898 C8.18022399 10.09306932 8.18022399 10.09306932 9.04467773 7.24291992 C3.10467773 7.73791992 3.10467773 7.73791992 -2.95532227 8.24291992 C-3.58032227 5.36791992 -3.58032227 5.36791992 -3.95532227 2.24291992 C-1.95532227 0.24291992 -1.95532227 0.24291992 0 0 Z " fill="#FDF0EE" transform="translate(334.955322265625,235.757080078125)"/>
<path d="M0 0 C2.31 0 4.62 0 7 0 C6.38188466 4.55315948 4.53234107 8.28459767 2.4375 12.3125 C1.9434668 13.28026367 1.9434668 13.28026367 1.43945312 14.26757812 C0.63175745 15.84785228 -0.18337613 17.42432105 -1 19 C-3.64 19 -6.28 19 -9 19 C-7.6077541 14.37324343 -5.70479016 10.35313769 -3.375 6.125 C-2.74335937 4.97257813 -2.11171875 3.82015625 -1.4609375 2.6328125 C-0.97882813 1.76398438 -0.49671875 0.89515625 0 0 Z " fill="#ED684F" transform="translate(109,195)"/>
<path d="M0 0 C2.64 0 5.28 0 8 0 C6.6077541 4.62675657 4.70479016 8.64686231 2.375 12.875 C1.74335938 14.02742187 1.11171875 15.17984375 0.4609375 16.3671875 C-0.02117187 17.23601562 -0.50328125 18.10484375 -1 19 C-3.31 19 -5.62 19 -8 19 C-6.00386732 12.2813095 -3.2708579 6.19265192 0 0 Z " fill="#F0694F" transform="translate(161,195)"/>
<path d="M0 0 C2.64 0 5.28 0 8 0 C6.69124677 2.98082668 5.37737319 5.95936842 4.0625 8.9375 C3.68931641 9.78763672 3.31613281 10.63777344 2.93164062 11.51367188 C2.57392578 12.32255859 2.21621094 13.13144531 1.84765625 13.96484375 C1.51773682 14.7137085 1.18781738 15.46257324 0.84790039 16.23413086 C0 18 0 18 -1 19 C-3.33297433 19.04092937 -5.66705225 19.04241723 -8 19 C-7.38188466 14.44684052 -5.53234107 10.71540233 -3.4375 6.6875 C-2.9434668 5.71973633 -2.9434668 5.71973633 -2.43945312 4.73242188 C-1.63175745 3.15214772 -0.81662387 1.57567895 0 0 Z " fill="#F26A50" transform="translate(172,195)"/>
<path d="M0 0 C2.64 0 5.28 0 8 0 C6.69124677 2.98082668 5.37737319 5.95936842 4.0625 8.9375 C3.68931641 9.78763672 3.31613281 10.63777344 2.93164062 11.51367188 C2.57392578 12.32255859 2.21621094 13.13144531 1.84765625 13.96484375 C1.51773682 14.7137085 1.18781738 15.46257324 0.84790039 16.23413086 C0 18 0 18 -1 19 C-3.33297433 19.04092937 -5.66705225 19.04241723 -8 19 C-7.38188466 14.44684052 -5.53234107 10.71540233 -3.4375 6.6875 C-2.9434668 5.71973633 -2.9434668 5.71973633 -2.43945312 4.73242188 C-1.63175745 3.15214772 -0.81662387 1.57567895 0 0 Z " fill="#F26A50" transform="translate(140,195)"/>
<path d="M0 0 C2.64 0 5.28 0 8 0 C5.03 6.27 2.06 12.54 -1 19 C-3.64 19 -6.28 19 -9 19 C-7.39369175 14.75707468 -5.4231838 10.72974893 -3.375 6.6875 C-3.05015625 6.04232422 -2.7253125 5.39714844 -2.390625 4.73242188 C-1.59558044 3.15402459 -0.79804366 1.57688306 0 0 Z " fill="#F26A50" transform="translate(130,195)"/>
<path d="M0 0 C2.64 0 5.28 0 8 0 C5.03 6.27 2.06 12.54 -1 19 C-3.64 19 -6.28 19 -9 19 C-6.03 12.73 -3.06 6.46 0 0 Z " fill="#F36A50" transform="translate(119,195)"/>
<path d="M0 0 C2.31 0 4.62 0 7 0 C5.6077541 4.62675657 3.70479016 8.64686231 1.375 12.875 C0.74335938 14.02742187 0.11171875 15.17984375 -0.5390625 16.3671875 C-1.02117187 17.23601562 -1.50328125 18.10484375 -2 19 C-4.31 19 -6.62 19 -9 19 C-7.6077541 14.37324343 -5.70479016 10.35313769 -3.375 6.125 C-2.74335938 4.97257813 -2.11171875 3.82015625 -1.4609375 2.6328125 C-0.97882813 1.76398438 -0.49671875 0.89515625 0 0 Z " fill="#F46B50" transform="translate(183,195)"/>
<path d="M0 0 C2.64 0 5.28 0 8 0 C5.03 6.27 2.06 12.54 -1 19 C-3.31 19 -5.62 19 -8 19 C-7.38188466 14.44684052 -5.53234107 10.71540233 -3.4375 6.6875 C-2.9434668 5.71973633 -2.9434668 5.71973633 -2.43945312 4.73242188 C-1.63175745 3.15214772 -0.81662387 1.57567895 0 0 Z " fill="#F46B50" transform="translate(151,195)"/>
<path d="M0 0 C0.99 0.33 1.98 0.66 3 1 C2.34 1 1.68 1 1 1 C0.97421875 1.58007812 0.9484375 2.16015625 0.921875 2.7578125 C0.52385951 8.23957134 -0.36880819 11.66274312 -4 16 C-6.75 18.375 -6.75 18.375 -9 20 C-9.58587716 9.02022803 -9.58587716 9.02022803 -6 4 C-3 1.5625 -3 1.5625 0 0 Z " fill="#FB7155" transform="translate(324,241)"/>
<path d="M0 0 C5.625 -0.25 5.625 -0.25 9 2 C9.3125 5 9.3125 5 9 8 C7 10 7 10 3.375 10.125 C2.26125 10.08375 1.1475 10.0425 0 10 C0 6.7 0 3.4 0 0 Z " fill="#C2C3C9" transform="translate(162,291)"/>
<path d="M0 0 C3 0.25 3 0.25 5 2.25 C5.25 4.75 5.25 4.75 5 7.25 C3 9.25 3 9.25 0 9.5 C-3 9.25 -3 9.25 -5 7.25 C-5.25 4.75 -5.25 4.75 -5 2.25 C-3 0.25 -3 0.25 0 0 Z " fill="#CACCD0" transform="translate(242,291.75)"/>
<path d="M0 0 C2.31 0 4.62 0 7 0 C7.87890625 6.15234375 7.87890625 6.15234375 8 8 C7 9 7 9 3.4375 9.0625 C2.303125 9.041875 1.16875 9.02125 0 9 C0 6.03 0 3.06 0 0 Z " fill="#989AA3" transform="translate(137,292)"/>
<path d="M0 0 C2.31 0.33 4.62 0.66 7 1 C7.70074844 4.153368 8 6.72724974 8 10 C7.01 9.67 6.02 9.34 5 9 C5 8.34 5 7.68 5 7 C4.01 7 3.02 7 2 7 C2 7.99 2 8.98 2 10 C1.34 10 0.68 10 0 10 C0 6.7 0 3.4 0 0 Z " fill="#9699A2" transform="translate(285,291)"/>
<path d="M0 0 C2.5 0.125 2.5 0.125 3.5 1.125 C3.625 4.625 3.625 4.625 3.5 8.125 C2.5 9.125 2.5 9.125 -0.0625 9.1875 C-0.866875 9.166875 -1.67125 9.14625 -2.5 9.125 C-3.86623674 6.39252652 -3.628426 4.14301098 -3.5 1.125 C-2.5 0.125 -2.5 0.125 0 0 Z " fill="#D9DADD" transform="translate(368.5,196.875)"/>
<path d="M0 0 C0.99 0.495 0.99 0.495 2 1 C2.33 1.99 2.66 2.98 3 4 C3.66 2.68 4.32 1.36 5 0 C8 1 8 1 10 4 C10.66 2.68 11.32 1.36 12 0 C13.0326802 2.78823655 13.04509293 3.8677274 12.0625 6.75 C11.711875 7.4925 11.36125 8.235 11 9 C8 8 8 8 6 5 C5.34 6.32 4.68 7.64 4 9 C3.34 9 2.68 9 2 9 C0.50178941 5.62902617 0 3.79557881 0 0 Z " fill="#C4C6CB" transform="translate(101,292)"/>
<path d="M0 0 C0.99 0 1.98 0 3 0 C2.35534798 4.33304076 0.81074878 7.86672065 -1.0625 11.8125 C-1.61035156 12.97394531 -2.15820312 14.13539063 -2.72265625 15.33203125 C-3.14417969 16.21246094 -3.56570312 17.09289062 -4 18 C-4.99 17.67 -5.98 17.34 -7 17 C-5.1668733 11.00067626 -2.92678249 5.55079437 0 0 Z " fill="#302533" transform="translate(147,196)"/>
<path d="M0 0 C2.31 0 4.62 0 7 0 C7.38218767 1.65614657 7.71395102 3.32457024 8 5 C7 6 7 6 4.4375 6.0625 C3.2309375 6.0315625 3.2309375 6.0315625 2 6 C2 6.99 2 7.98 2 9 C1.34 9 0.68 9 0 9 C0 6.03 0 3.06 0 0 Z " fill="#727581" transform="translate(255,292)"/>
<path d="M0 0 C0.99 0 1.98 0 3 0 C1.443154 4.01303508 -0.31138857 7.9092928 -2.125 11.8125 C-2.93324219 13.55466797 -2.93324219 13.55466797 -3.7578125 15.33203125 C-4.16773438 16.21246094 -4.57765625 17.09289062 -5 18 C-6.2109375 16.453125 -6.2109375 16.453125 -7 14 C-5.99212459 11.39484836 -4.96372907 9.17152464 -3.625 6.75 C-3.11066406 5.77546875 -3.11066406 5.77546875 -2.5859375 4.78125 C-1.73816328 3.17989869 -0.87091321 1.58888556 0 0 Z " fill="#322534" transform="translate(158,196)"/>
<path d="M0 0 C2.475 0.99 2.475 0.99 5 2 C3.63016497 5.16115776 3.0109362 5.9927092 0 8 C-0.99 7.67 -1.98 7.34 -3 7 C-3.99 7.495 -3.99 7.495 -5 8 C-3.8141763 4.62496331 -2.72426311 2.35277269 0 0 Z " fill="#FDE7E3" transform="translate(193,240)"/>
<path d="M0 0 C0.99 0.33 1.98 0.66 3 1 C0.36 6.61 -2.28 12.22 -5 18 C-5.66 16.68 -6.32 15.36 -7 14 C-5.99212459 11.39484836 -4.96372907 9.17152464 -3.625 6.75 C-3.11066406 5.77546875 -3.11066406 5.77546875 -2.5859375 4.78125 C-1.73816328 3.17989869 -0.87091321 1.58888556 0 0 Z " fill="#282232" transform="translate(137,196)"/>
<path d="M0 0 C2.31 0 4.62 0 7 0 C7 0.66 7 1.32 7 2 C5.35 2 3.7 2 2 2 C2 2.99 2 3.98 2 5 C3.32 5.33 4.64 5.66 6 6 C4.68 6 3.36 6 2 6 C2 6.99 2 7.98 2 9 C3.65 9 5.3 9 7 9 C7 9.33 7 9.66 7 10 C4.69 10 2.38 10 0 10 C0 6.7 0 3.4 0 0 Z " fill="#C2C3C8" transform="translate(209,291)"/>
<path d="M0 0 C0.33 0 0.66 0 1 0 C1.37815631 4.37243229 0.34305827 6.65147145 -2 10.3125 C-2.556875 11.19550781 -3.11375 12.07851563 -3.6875 12.98828125 C-4.120625 13.65214844 -4.55375 14.31601562 -5 15 C-5.66 14.01 -6.32 13.02 -7 12 C-6.02296079 10.1863523 -5.04330895 8.37411183 -4.0625 6.5625 C-3.51722656 5.55316406 -2.97195312 4.54382813 -2.41015625 3.50390625 C-1 1 -1 1 0 0 Z " fill="#F9D3CC" transform="translate(158,255)"/>
<path d="M0 0 C0.66 0.33 1.32 0.66 2 1 C1.39254603 5.85963179 -0.72758967 9.7405518 -3 14 C-3.99 14 -4.98 14 -6 14 C-4.50829734 9.0276578 -2.39542583 4.58154261 0 0 Z " fill="#3A2835" transform="translate(179,196)"/>
<path d="M0 0 C1.67542976 0.28604898 3.34385343 0.61781233 5 1 C5 2.65 5 4.3 5 6 C1.25 7.125 1.25 7.125 -1 6 C-1.042721 4.33388095 -1.04063832 2.66617115 -1 1 C-0.67 0.67 -0.34 0.34 0 0 Z " fill="#212639" transform="translate(240,293)"/>
<path d="M0 0 C2.31 0 4.62 0 7 0 C7 0.33 7 0.66 7 1 C5.35 1 3.7 1 2 1 C2 1.66 2 2.32 2 3 C3.32 3 4.64 3 6 3 C6 3.66 6 4.32 6 5 C4.68 5 3.36 5 2 5 C2 5.99 2 6.98 2 8 C3.65 8 5.3 8 7 8 C7 8.33 7 8.66 7 9 C4.69 9 2.38 9 0 9 C0 6.03 0 3.06 0 0 Z " fill="#CBCDD1" transform="translate(179,292)"/>
<path d="M0 0 C2.31 0 4.62 0 7 0 C7 0.33 7 0.66 7 1 C5.35 1 3.7 1 2 1 C2 1.66 2 2.32 2 3 C3.32 3 4.64 3 6 3 C6 3.66 6 4.32 6 5 C4.68 5 3.36 5 2 5 C2 5.99 2 6.98 2 8 C3.65 8 5.3 8 7 8 C7 8.33 7 8.66 7 9 C4.69 9 2.38 9 0 9 C0 6.03 0 3.06 0 0 Z " fill="#CBCDD1" transform="translate(122,292)"/>
<path d="M0 0 C2.475 0.495 2.475 0.495 5 1 C5.625 2.875 5.625 2.875 6 5 C5.34 5.66 4.68 6.32 4 7 C2.68 7 1.36 7 0 7 C0 4.69 0 2.38 0 0 Z " fill="#202538" transform="translate(164,293)"/>
<path d="M0 0 C0.99 0.33 1.98 0.66 3 1 C0.69 5.62 -1.62 10.24 -4 15 C-4.66 14.67 -5.32 14.34 -6 14 C-4.50829734 9.0276578 -2.39542583 4.58154261 0 0 Z " fill="#282232" transform="translate(115,198)"/>
<path d="M0 0 C2.31 0 4.62 0 7 0 C7 0.33 7 0.66 7 1 C5.35 1 3.7 1 2 1 C2 1.66 2 2.32 2 3 C3.32 3 4.64 3 6 3 C6 3.66 6 4.32 6 5 C4.68 5 3.36 5 2 5 C2 5.99 2 6.98 2 8 C3.65 8 5.3 8 7 8 C7 8.33 7 8.66 7 9 C4.69 9 2.38 9 0 9 C0 6.03 0 3.06 0 0 Z " fill="#CBCDD1" transform="translate(291,197)"/>
<path d="M0 0 C0.99 0.33 1.98 0.66 3 1 C1.02 5.29 -0.96 9.58 -3 14 C-3.99 13.67 -4.98 13.34 -6 13 C-4.02 8.71 -2.04 4.42 0 0 Z " fill="#FBDED9" transform="translate(340,251)"/>
<path d="M0 0 C1.98 0 3.96 0 6 0 C4.68 0.33 3.36 0.66 2 1 C2 1.66 2 2.32 2 3 C3.32 3.33 4.64 3.66 6 4 C6.5625 5.9375 6.5625 5.9375 7 8 C6 9 6 9 2.9375 9.0625 C1.968125 9.041875 0.99875 9.02125 0 9 C0 8.34 0 7.68 0 7 C2.475 7.495 2.475 7.495 5 8 C5 7.01 5 6.02 5 5 C3.35 5 1.7 5 0 5 C0 3.35 0 1.7 0 0 Z " fill="#BDBEC4" transform="translate(393,197)"/>
<path d="M0 0 C0.66 1.32 1.32 2.64 2 4 C0.87749844 5.62672685 -0.24808733 7.25132582 -1.375 8.875 C-2.00148437 9.77992188 -2.62796875 10.68484375 -3.2734375 11.6171875 C-5 14 -5 14 -7 16 C-7.33 15.34 -7.66 14.68 -8 14 C-6.6015625 11.50390625 -6.6015625 11.50390625 -4.625 8.5625 C-1.89488715 4.48814122 -1.89488715 4.48814122 0 0 Z " fill="#FABCAF" transform="translate(156,248)"/>
<path d="M0 0 C0.33 0 0.66 0 1 0 C1.33 5.28 1.66 10.56 2 16 C1.34 16 0.68 16 0 16 C-0.33 13.03 -0.66 10.06 -1 7 C-1.33 7 -1.66 7 -2 7 C-2.125 4.625 -2.125 4.625 -2 2 C-1.34 1.34 -0.68 0.68 0 0 Z " fill="#F79480" transform="translate(279,248)"/>
<path d="M0 0 C1.98 0.495 1.98 0.495 4 1 C4 2.65 4 4.3 4 6 C2.68 6 1.36 6 0 6 C-1.125 2.25 -1.125 2.25 0 0 Z " fill="#2B2F42" transform="translate(367,198)"/>
<path d="M0 0 C0.99 0.33 1.98 0.66 3 1 C2.34 1 1.68 1 1 1 C1 1.66 1 2.32 1 3 C0.01 3 -0.98 3 -2 3 C-2.268125 3.61875 -2.53625 4.2375 -2.8125 4.875 C-4 7 -4 7 -7 9 C-6.875 6.75 -6.875 6.75 -6 4 C-3.125 1.625 -3.125 1.625 0 0 Z " fill="#F0765D" transform="translate(324,241)"/>
<path d="M0 0 C1.32 0 2.64 0 4 0 C3.67 1.98 3.34 3.96 3 6 C1.68 6 0.36 6 -1 6 C-1.042721 4.33388095 -1.04063832 2.66617115 -1 1 C-0.67 0.67 -0.34 0.34 0 0 Z " fill="#FEFAF9" transform="translate(334,264)"/>
<path d="M0 0 C0.66 0.66 1.32 1.32 2 2 C1.43410156 2.48210937 0.86820313 2.96421875 0.28515625 3.4609375 C-0.44832031 4.09257812 -1.18179688 4.72421875 -1.9375 5.375 C-2.66839844 6.00148437 -3.39929688 6.62796875 -4.15234375 7.2734375 C-6.08380906 8.87747714 -6.08380906 8.87747714 -7 11 C-7.66 10.67 -8.32 10.34 -9 10 C-6.68116787 5.49115974 -3.93548431 3.06093224 0 0 Z " fill="#FCA290" transform="translate(170,235)"/>
<path d="M0 0 C0.66 0 1.32 0 2 0 C2 1.65 2 3.3 2 5 C2.99 5.33 3.98 5.66 5 6 C4.01 6 3.02 6 2 6 C2 6.99 2 7.98 2 9 C1.34 9 0.68 9 0 9 C0 6.03 0 3.06 0 0 Z " fill="#CECFD3" transform="translate(255,292)"/>
<path d="M0 0 C0.66 0.33 1.32 0.66 2 1 C2 2.98 2 4.96 2 7 C0.68 7 -0.64 7 -2 7 C-1.34 4.69 -0.68 2.38 0 0 Z " fill="#F2785F" transform="translate(209,243)"/>
<path d="M0 0 C0.66 0.66 1.32 1.32 2 2 C0.7260411 4.03833424 -0.61061923 6.03852126 -2 8 C-2.66 8 -3.32 8 -4 8 C-3.40072174 4.64404172 -2.15377564 2.62198774 0 0 Z " fill="#FC9B88" transform="translate(188,243)"/>
<path d="M0 0 C2.0625 0.4375 2.0625 0.4375 4 1 C1.03 3.475 1.03 3.475 -2 6 C-1.125 1.125 -1.125 1.125 0 0 Z " fill="#F1745A" transform="translate(204,258)"/>
</svg>
